<svg version="1.0" xmlns="http://www.w3.org/2000/svg" width="1706.667" height="1706.667" viewBox="0 0 1280 1280"><path d="M366.3 96c-1.3.5-2.3 1.6-2.3 2.5 0 .8-.4 1.5-.8 1.5-1.6 0-10 8.8-10.7 11.1-.4 1.3-1.6 3.4-2.7 4.6-2 2.2-3.9 10.3-6 25.3-.5 4.1-1.3 34.4-1.6 67.4l-.7 59.9-2.5-3.5c-2.6-3.6-15.1-14.8-16.5-14.8-.5 0-1.8-.9-2.9-1.9-2.6-2.4-16.2-7.1-20.5-7.1-1.8 0-4.2-.5-5.3-1.1-2.5-1.3-14.2-3.9-17.8-3.9-1.4 0-3.8.9-5.5 2-1.6 1.1-3.9 2-5 2-3.6 0-8.5 6.3-9.1 11.7-.6 4.6 1 37.7 2.1 43.8 2.9 17.4 3.4 57 1 74-.8 5.5-2 16.1-2.6 23.5-.7 8.4-1.7 14.6-2.7 16.5-.9 1.6-1.9 6.3-2.2 10.2-.5 4.8-1.3 7.9-2.4 9.2-1 1.1-2.1 4.8-2.7 8.5-.5 3.7-1.5 7.7-2.3 8.9-.8 1.2-1.7 4.4-2.1 7.2-.3 2.7-1.4 6.6-2.4 8.5-1 1.9-2.1 5.4-2.5 7.7-.3 2.4-1.5 5.8-2.6 7.5-1.1 1.8-2 4.6-2 6.1s-1.1 4.9-2.5 7.5c-1.4 2.6-2.5 5.9-2.5 7.5 0 1.5-.7 4.1-1.5 5.8-.9 1.6-2 5.2-2.5 8.1-.6 2.8-1.7 5.9-2.6 6.9-.8.9-1.8 4.3-2.1 7.5-.3 3.7-1.3 6.7-2.4 8-1 1.1-2.2 4.2-2.5 7-.4 2.7-1.5 6.6-2.5 8.6-1.1 2.1-1.9 5.4-1.9 7.5-.1 2.1-1 6.3-2.1 9.3-1.1 3-2.4 8.5-2.9 12.2-.5 3.6-1.6 8-2.4 9.7-.9 1.7-2 7.7-2.6 13.8-.5 6-1.6 12.6-2.4 14.8-2.3 6.1-2.3 63.7 0 68 .9 1.6 2 7.2 2.4 12.3.5 5.7 1.5 10.2 2.5 11.8.9 1.4 1.9 4.8 2.2 7.7.4 2.9 1.7 7.2 3 9.6 1.2 2.4 2.3 5.6 2.3 7.1s.8 3.8 1.8 5.1c1.1 1.3 2.2 3.7 2.6 5.4.4 1.6 1.6 3.9 2.5 5 1 1.1 2.1 3.3 2.5 4.9.4 1.6 1.6 4.1 2.7 5.4 1 1.4 1.9 3.2 1.9 4.2 0 .9.9 2.5 2 3.5s2 2.3 2 3c0 .7 1 2.3 2.3 3.7 1.2 1.4 3 3.8 3.9 5.4 2.4 4.1 4 6.4 6.1 8.8 1 1.1 4 4.8 6.6 8.1 6.5 8.2 21.5 23.1 24.8 24.9 2.4 1.2 6.1 4.3 12.3 10.1 2.3 2.1 9 6.5 9.9 6.5.5 0 2.1 1 3.6 2.2 1.6 1.2 4.2 3 5.9 3.9 1.7 1 4.7 2.6 6.6 3.7 8.2 4.5 9.6 5.2 10.8 5.2.7 0 2.6 1 4.2 2.1 1.9 1.5 3.6 2 5.3 1.5 2.2-.5 2.5-1.1 3-8.7.4-5.6 1-8.6 2.2-9.9 1-1.1 2.1-4.1 2.6-6.7.5-2.6 1.8-5.6 2.9-6.8 1.1-1.2 2-2.7 2-3.3 0-.7.7-1.5 1.5-1.8.8-.3 1.9-2.2 2.6-4.1 1.4-4.2 15.2-18.3 18-18.3 2.7 0 5.9-3.5 5.9-6.5 0-1.6-1.5-4.1-4.1-6.7-6.6-6.9-6.8-8.6-.3-3.9 3.1 2.2 6.1 4.1 6.6 4.1s3 1.4 5.4 3.1c6 4.1 17.5 9.3 24.4 11 8.4 2.1 37.3 1.5 43.2-.8 7-2.9 21.6-11.5 22.3-13.1 1.1-3 .7-135-.5-137.2-1.3-2.4 2.2-2.2-40.4-2.1-24.7.1-35.3-.2-36.2-1-2-1.7-2.1-451.6-.1-454.3 1.2-1.7 9.7-1.8 166.2-1.7 90.8 0 166 0 167.3.1 1.5 0 2.6.9 3.3 2.7.8 1.9 1.1 30.3 1 91.7 0 63.4.3 89.3 1 90.3.7.7 3.1 1.3 5.5 1.3 3.3 0 4.7-.5 5.6-2 .8-1.3 2.4-2 4.4-2 1.7 0 4.7-1.1 6.7-2.5 2-1.3 5.4-2.9 7.6-3.5 5.5-1.5 11.9-5.8 13.6-9.3.8-1.7 1.5-4.9 1.5-7.3 0-3.9.2-4.3 3.4-5.4 1.9-.6 4-1.7 4.6-2.5.6-.7 2.6-1.7 4.3-2 1.8-.4 4.8-1.7 6.7-2.9 5.6-3.4 9.2-5.5 13-7.1 1.9-.9 4.2-2 5-2.5.8-.6 3.1-1.7 5-2.6 9.2-4 11.7-5.6 17.2-11.4 2.7-2.8 5.9-7.3 7.3-10 1.4-2.7 2.9-5.1 3.5-5.5.5-.3 1-2.2 1-4.1 0-1.9 1.1-6.2 2.5-9.6 3.6-8.9 3.2-13-2-18.2-1.8-1.8-2.4-3.2-2-4.6.4-1.3-.3-3.7-1.9-6.5-1.4-2.4-2.6-5.2-2.6-6.3 0-1.1-.9-3.1-2-4.5s-2-2.9-2-3.5c0-2.1-6.3-8.6-11.2-11.5-14-8.4-25.4-8.9-42.2-2.1-3.3 1.3-6.3 2.4-6.8 2.4-.4 0-.8-22.2-.8-49.4 0-42.6-.2-49.5-1.5-50.6-.8-.7-1.5-2.2-1.5-3.4 0-1.2-.6-3-1.4-4.1-.7-1.1-1.7-3.1-2.1-4.4-.7-2.2-5.4-9.3-8.8-13.2-1.3-1.5-7.6-1.7-57.3-2.3-30.8-.3-61.7-.8-68.9-1.1-7.1-.3-38.4-.7-69.5-1-31.1-.3-62.8-.7-70.5-1-31.9-1.1-125.1-1.5-127.2-.5zM568 119c1 .6 3.4 1 5.2 1 4.5 0 13.6 3.9 14.4 6.2.3 1 1.2 2.5 2.1 3.4 2.3 2.2 2 8.6-.6 12.2-1.1 1.7-2.1 3.5-2.1 4.1 0 .7-.8 1.4-1.7 1.8-1 .3-2.8 1.5-4.1 2.7-2 1.8-3.9 2.1-13.3 2.4-6 .3-11.7.1-12.6-.3-1-.4-4-.8-6.8-.9-2.7-.2-8.4-1.7-12.5-3.4-8.3-3.3-8.7-3.9-8.9-13-.1-6.5 1.8-10.5 5.9-12.2 1.7-.7 3.5-2.1 4-3.1.6-1 2-1.9 3.2-2.1 4.3-.7 26 .2 27.8 1.2z"/><path d="M441.6 216.2c-9.2 6.1-8.5-3.9-8.6 124.1-.1 69.4.3 113.2.8 114.8 1.7 4.3 6.1 8.7 10.5 10.4 3.8 1.4 15.5 1.5 117.7 1.3 111.5-.3 113.6-.3 116.7-2.3 1.8-1.1 4.4-4.2 5.9-6.8l2.6-4.9-.1-113.1-.2-113.2-2.7-4.4c-1.5-2.4-4-5.4-5.5-6.5-2.8-2.1-2.9-2.1-117.6-2.4l-114.7-.2-4.8 3.2zm345.9 176.3c-2.2 1.4-5.2 2.5-6.6 2.5-1.5 0-3.7.8-5 1.8-4.1 3.1-17.4 9.2-20.1 9.2-1.4 0-3.3.8-4.2 1.9-.9 1-3.1 2.2-4.9 2.5-1.7.4-4.1 1.5-5.2 2.5-8.5 8-11.5 11.3-11.5 12.3 0 .6-.9 2.1-2 3.3-1.2 1.2-2.3 4-2.6 6.1-.3 2.1-1.4 6-2.5 8.6-2.3 5.7-2.5 14.5-.4 17.5.8 1.2 2 4.6 2.5 7.5 1.1 5.6 3.7 10 9.8 16.3 5.9 6.1 9.2 8.5 11.5 8.5 1.1 0 3.8 1.2 5.8 2.6 3.6 2.5 4.3 2.6 15.2 2.2 9.2-.2 11.9-.6 13.4-2 1.1-1 3.5-2.1 5.4-2.4 1.9-.4 5.4-1.8 7.9-3 2.5-1.3 5.3-2.4 6.2-2.4.9 0 2.9-1.1 4.3-2.4 1.4-1.3 4.2-2.7 6.2-3.1 2.1-.4 4.9-1.5 6.4-2.6 1.5-1 3.2-1.9 3.8-1.9.6 0 2.7-1.5 4.7-3.4 10.6-9.9 14.1-14.1 14.9-18.3.4-2.1 1.2-4.4 1.8-5.2.7-.8 1.3-6.1 1.6-12.6.3-9.7 0-11.8-1.8-15.8-1.2-2.5-2.1-5.6-2.1-6.8 0-4.2-17.9-20.9-22.4-20.9-1.3 0-4.4-1.1-7-2.5-6.7-3.5-17.3-3.5-23.1 0zM803 504.7c-2.5.2-5.4 1.2-6.5 2.2-1.1 1-3.8 2.4-6 3.1-2.2.7-5.3 2.1-7 3.1-1.6 1.1-4.2 1.9-5.6 1.9-1.4 0-4 1.1-5.9 2.5-1.9 1.4-4.4 2.5-5.6 2.5-1.1 0-3.8 1.1-5.8 2.5s-4.9 2.8-6.4 3.1c-3.2.8-12.3 5.8-16.8 9.1-4.5 3.4-10.8 13-12.3 18.7-.7 2.7-1.9 6.2-2.7 7.7-2 4-1.8 14.1.5 19.7 1.1 2.6 2.2 6 2.6 7.7.3 1.6 1.7 4.7 3.1 6.7 1.3 2.1 2.4 4.1 2.4 4.6 0 1.5 7.5 7.9 10.7 9.1 1.7.7 3.4 1.9 3.7 2.7.3.9 2 1.4 4.3 1.4 2.1 0 6.2.9 9.1 2 6.5 2.5 8.4 2.5 15.7 0 3.2-1.1 7.2-2 9-2 1.9 0 3.9-.8 5-2 1-1.1 3.4-2.2 5.4-2.6 2-.3 5.5-1.7 7.8-3s4.8-2.4 5.6-2.4c.8 0 3.1-1.4 5.2-3 2.4-1.9 4.9-3 7-3 1.9 0 3.9-.8 5-2 1-1.1 3.4-2.3 5.3-2.6 1.9-.4 5.1-1.7 7-3 1.9-1.3 3.9-2.4 4.4-2.4 1.2 0 7.7-6.6 10.4-10.5 1.1-1.7 2.6-4.6 3.2-6.5.7-1.8 2-4.2 2.9-5.2 1.3-1.5 1.8-4.5 2.1-13.6l.4-11.8-5.2-10.6c-5.5-11.1-7.6-13.5-19-20.8-4.3-2.7-5.4-3-16.5-3.4-6.6-.2-14-.2-16.5.1zm-258 13.2c-1.9 1-4.9 2.2-6.6 2.5-1.8.4-4 1.6-5 2.7-.9 1-2.3 1.9-2.9 1.9-1.9 0-13.7 12.1-16.8 17.2-1.5 2.5-3 6.1-3.3 7.9-.4 1.9-1.4 4.5-2.3 5.9-1.5 2.3-1.6 18.2-2.1 179.1-.5 181.8-.5 179.9-4 179.9-.5 0-1.6-2-2.5-4.5-1-2.5-2.3-5-3.1-5.6-.7-.6-1.6-2.4-1.9-4-.4-1.6-1.4-3.5-2.3-4.2-1.7-1.2-8.2-10.2-8.2-11.3 0-.3-2.2-3.2-5-6.5-2.7-3.3-5.4-6.8-6-7.9-.9-1.7-12.8-14-17.5-18-1.1-1-3.1-2.3-4.5-3-1.4-.7-3.2-1.9-4-2.6-5.2-4.6-8.8-7.2-11-7.9-1.4-.4-3.8-1.8-5.3-3.1-1.7-1.4-4.2-2.4-6-2.4-1.8 0-5-1-7.2-2.2-3.6-2-5.4-2.2-19-2.3-13.7 0-15.3.2-19 2.3-2.2 1.2-5.6 2.2-7.6 2.2-2.1 0-4.7.8-6.1 2-1.4 1-4.3 2.5-6.5 3.3-4.5 1.5-5.2 2.1-17.3 14-5 4.9-9 9.7-9 10.7s1 3.1 2.3 4.7c1.3 1.5 2.7 3.5 3 4.3.4.8 2.3 3.5 4.2 6 1.9 2.5 4.3 5.6 5.2 7 1.7 2.5 6.5 7.9 13.3 15 1.9 2 7.4 7.8 12.2 12.8 4.8 5 9.5 10.4 10.5 11.9 2.2 3.5 10.2 13.7 13.9 17.6 1.1 1.2 3.3 4.4 4.9 7.2 1.6 2.7 4.1 6.3 5.7 7.8 1.5 1.6 2.8 3.2 2.8 3.7s1.1 2.1 2.5 3.6 2.5 3.2 2.5 3.9c0 .7 1.4 2.9 3 5 1.7 2.1 3 4.2 3 4.7 0 .6 1.1 2.3 2.5 4 1.4 1.6 2.5 3.5 2.5 4.2 0 .7 1.1 2.3 2.4 3.5 1.3 1.3 2.7 3.7 3 5.5.4 1.9 1.5 4.1 2.6 5.1s2 2.5 2 3.3c0 .8 1.1 3.4 2.4 5.6 1.3 2.3 2.9 5.8 3.5 7.8.7 2 1.8 4.2 2.6 4.8.8.7 1.7 2.7 2.1 4.5.3 1.8 1.7 4.2 3 5.4 1.3 1.1 2.4 3.1 2.4 4.3 0 1.3 1.4 5 3 8.3 1.6 3.3 3 7 3 8.1 0 1.2.7 2.7 1.5 3.4.8.7 2.2 3.6 3 6.4.8 2.8 2.4 6.4 3.5 8.1 1.1 1.6 2 3.7 2 4.6 0 .9 1.1 3.6 2.3 6 1.3 2.4 2.7 5.7 3.1 7.4.4 1.6 1.3 3.7 2.1 4.5.7.8 1.8 3.3 2.5 5.5s2.1 5.4 3.1 7.1c1.1 1.7 1.9 3.8 1.9 4.7 0 .8 1.1 2.9 2.5 4.5 1.4 1.7 2.8 4.4 3.1 6 .3 1.7 1.7 4.1 3 5.3 1.3 1.2 2.4 3.3 2.4 4.5 0 1.2 1.1 3.5 2.4 5.1 1.4 1.6 2.8 4.2 3.2 5.6.3 1.5 1.4 3.2 2.3 3.6.9.5 2.2 2.6 3 4.8.7 2.1 1.9 4.5 2.6 5.3.7.8 1.6 2.5 1.9 3.8.4 1.2 1.6 2.7 2.7 3.2 1 .6 2.6 2.5 3.5 4.3 4 7.7 18.6 25.1 29.8 35.7 18.7 17.4 26.4 23.3 36.6 28 2.5 1.2 5.2 2.7 6 3.5.8.7 3.1 1.6 5 2 1.9.4 4.6 1.6 5.9 2.6 1.3 1.1 3.5 1.9 5 1.9 1.4 0 4.9 1.4 7.6 3 3.4 2 6.4 3 9.2 3 2.3 0 6.5.9 9.3 2 3 1.2 9.6 2.4 16.4 3 6.2.5 13.3 1.8 15.7 2.7 3.9 1.5 9.1 1.7 45.9 1.8 36.8 0 42-.2 46.2-1.7 2.6-1 9.7-2.2 16-2.9 6.7-.6 12.7-1.8 14.8-2.9 1.9-.9 6.2-2 9.5-2.4 3.2-.4 6.7-1.4 7.6-2.2.9-.8 3.9-2.2 6.5-3 2.6-.8 5.7-2 6.9-2.8 1.1-.7 3.6-1.7 5.5-2.1 1.9-.4 4.6-1.5 6-2.5 1.4-1 3.6-2.1 5-2.5 1.4-.4 4.1-1.7 6-2.9 1.9-1.3 5.8-3.7 8.5-5.4 8.1-5 31.5-23.4 32.4-25.5.1-.4 1-1.3 1.8-2 4-3.2 8.8-8.8 12.8-14.8 2.4-3.7 5.1-6.9 6-7.2.8-.4 1.5-1.3 1.5-2 0-.8 1.1-2.6 2.5-4.1 1.4-1.5 2.5-3.5 2.5-4.5s1.4-3.2 3-4.9c1.6-1.8 3-4 3-5s1.1-3.3 2.5-5.2c1.4-1.9 2.5-4.1 2.5-5.1 0-.9 1-2.9 2.1-4.4 1.2-1.5 2.6-4.7 3-7.2.5-2.4 1.8-5.7 2.9-7.3 1.1-1.5 2-4.4 2-6.3 0-4 1.4-8.9 3.8-13.2 1.6-2.8 1.7-12.2 1.7-118.5V870.5l-2.7-3.9c-1.6-2.1-2.8-4.8-2.8-5.8 0-2.3-3-6.4-8.5-11.6-2.1-2-5-4.8-6.4-6.1-1.3-1.3-4-2.8-5.9-3.3-2-.6-4.8-2-6.4-3.1-2.8-2-4.1-2.2-19.2-2.2-14.5 0-16.5.2-19.1 2-1.7 1.1-4.4 2.4-6.2 3-3 1-14 10.8-17.5 15.7-3.2 4.4-4.2 1.1-4.8-15-.5-12.6-.9-15.3-2.8-18.9-1.2-2.3-2.2-5.7-2.2-7.6 0-2.1-.8-4.1-2-5.2-1.1-1-2.5-3.5-3.1-5.5-1.1-3.5-7.1-11-8.9-11-.5 0-1.1-.9-1.5-1.9-.3-1.1-2-2.4-3.7-3-1.8-.6-3.9-1.7-4.7-2.5-.9-.8-5.2-2.8-9.6-4.5-6.9-2.7-9.3-3.1-17.3-3.1-6.3 0-10.5.5-13 1.6-2 .9-5.8 2.2-8.4 3-2.6.8-5.2 2.3-5.8 3.3-.5 1-2.1 2.2-3.6 2.5-5 1.3-10.9 7.4-15 15.4-2.1 4.3-4 7.9-4.2 8.2-.2.3-1.2-.6-2.3-1.9-1.3-1.6-1.9-3.9-1.9-7.6 0-3.5-.8-7.1-2.5-10.7-1.4-2.9-2.5-6.5-2.5-8.1 0-1.5-.9-3.6-1.9-4.6-1.1-1.1-2.7-3.3-3.5-5-.9-1.6-4.5-5.9-8.1-9.5-5-5-7.7-6.9-11-7.7-2.4-.6-5.1-2-6.1-3-1.5-1.7-3.3-1.9-16.7-1.9-13 0-15.4.3-18.1 1.9-1.7 1.1-4.9 2.4-7.2 3-2.8.7-6 2.9-10 6.9-11.3 11.1-16.4 17.1-16.4 19.5 0 1.3-.6 3.1-1.3 4.1-3.6 4.9-3.7 1.9-3.9-115.5l-.3-114.4-2.7-4.9c-1.6-2.7-2.8-5.6-2.8-6.4 0-4.7-21.5-25.2-26.5-25.2-1.4 0-4.3-.9-6.5-2-5.5-2.8-25.7-2.9-31-.1z"/><path d="M807 622.4c-2 .8-5.6 1.7-7.9 2.1-2.4.4-6.4 2-8.9 3.6s-5.8 2.9-7.2 2.9c-1.5 0-3.5.8-4.4 1.9-.9 1-3.5 2.2-5.8 2.5-2.4.4-5.1 1.7-6.3 3-1.2 1.3-3.9 2.6-6.2 2.9-2.2.4-4.6 1.3-5.2 2.1-.7.8-2.5 1.8-4.1 2.1-2.9.6-13.9 10.7-17.5 16-5.8 8.6-5.8 35.1-.1 41.4.9 1 1.6 2.3 1.6 3 0 2 8.3 10.3 12 12 1.9.9 4.8 2.5 6.4 3.6 2.5 1.7 4.7 2 15 2 10.6 0 12.6-.3 15.7-2.1 2-1.2 5.3-2.7 7.5-3.4 2.1-.7 5-2.1 6.3-3.1 1.3-1.1 3.9-1.9 5.7-1.9 2.2 0 3.8-.7 4.7-2.1.8-1.1 3.6-2.7 6.3-3.5 2.6-.8 5.5-2 6.3-2.8.9-.7 3-1.6 4.7-1.9 5.7-1.1 11.7-5.6 21.5-16.2 1-1.1 2.3-4.4 2.9-7.3.5-2.9 1.7-6.3 2.5-7.5 2.2-3.2 2-12.9-.5-17.9-1.1-2.3-2-5.3-2-6.6 0-1.3-1.2-3.9-2.7-5.8-1.6-1.8-3.8-4.7-5.1-6.3-3.6-4.8-11-9.1-19.1-11.3-10.4-2.8-12.1-2.9-16.1-1.4zm-149.3 27.8c-2.1 3.5-2.4 49-.4 50.7 1 .8 5.8 1.1 15.8.9l14.4-.3.5-18.5c.4-15.1.8-19.1 2.3-21.7 2.2-4.2 2.3-10.9 0-11.7-.9-.4-8.3-.9-16.4-1.2-14.6-.5-14.8-.5-16.2 1.8z"/></svg>